<svg width="1440" height="200" viewBox="0 0 1440 200" fill="none" xmlns="http://www.w3.org/2000/svg">
<path fill-rule="evenodd" clip-rule="evenodd" d="M0 200L21.6 176.667C43.2 153.333 87.6 106.667 130.8 100C174 93.3333 218.4 126.667 261.6 126.667C306 126.667 349.2 93.3333 392.4 90C436.8 86.6667 480 113.333 523.2 120C567.6 126.667 610.8 113.333 654 120C698.4 126.667 741.6 153.333 786 150C829.2 146.667 872.4 113.333 916.8 83.3333C960 53.3333 1003.2 26.6667 1047.6 16.6667C1090.8 6.66667 1134 13.3333 1178.4 23.3333C1221.6 33.3333 1266 46.6667 1309.2 76.6667C1352.4 106.667 1396.8 153.333 1418.4 176.667L1440 200V0H1418.4C1396.8 0 1352.4 0 1309.2 0C1266 0 1221.6 0 1178.4 0C1134 0 1090.8 0 1047.6 0C1003.2 0 960 0 916.8 0C872.4 0 829.2 0 786 0C741.6 0 698.4 0 654 0C610.8 0 567.6 0 523.2 0C480 0 436.8 0 392.4 0C349.2 0 306 0 261.6 0C218.4 0 174 0 130.8 0C87.6 0 43.2 0 21.6 0H0V200Z" fill="#0F0F0F"/>
</svg>
