<svg width="1440" height="200" viewBox="0 0 1440 200" reserveAspectRatio="none" fill="none" xmlns="http://www.w3.org/2000/svg">
<path fill-rule="evenodd" clip-rule="evenodd" d="M0 20L21.6 26.6667C43.2 33.3333 87.6 46.6667 130.8 63.3333C174 80 218.4 100 261.6 100C306 100 349.2 80 392.4 80C436.8 80 480 100 523.2 120C567.6 140 610.8 160 654 166.667C698.4 173.333 741.6 166.667 786 150C829.2 133.333 872.4 106.667 916.8 110C960 113.333 1003.2 146.667 1047.6 153.333C1090.8 160 1134 140 1178.4 126.667C1221.6 113.333 1266 106.667 1309.2 86.6667C1352.4 66.6667 1396.8 33.3333 1418.4 16.6667L1440 0V200H1418.4C1396.8 200 1352.4 200 1309.2 200C1266 200 1221.6 200 1178.4 200C1134 200 1090.8 200 1047.6 200C1003.2 200 960 200 916.8 200C872.4 200 829.2 200 786 200C741.6 200 698.4 200 654 200C610.8 200 567.6 200 523.2 200C480 200 436.8 200 392.4 200C349.2 200 306 200 261.6 200C218.4 200 174 200 130.8 200C87.6 200 43.2 200 21.6 200H0V20Z" fill="#0F0F0F"/>
</svg>

