<svg width="1440" height="200" viewBox="0 0 1440 200" fill="none" xmlns="http://www.w3.org/2000/svg">
<path fill-rule="evenodd" clip-rule="evenodd" d="M0 133.333L20.4 140.741C39.6 148.148 80.4 162.963 120 148.148C159.6 133.333 200.4 88.8889 240 70.3704C279.6 51.8519 320.4 59.2593 360 55.5556C399.6 51.8519 440.4 37.037 480 33.3333C519.6 29.6296 560.4 37.037 600 51.8519C639.6 66.6667 680.4 88.8889 720 92.5926C759.6 96.2963 800.4 81.4815 840 96.2963C879.6 111.111 920.4 155.556 960 177.778C999.6 200 1040.4 200 1080 174.074C1119.6 148.148 1160.4 96.2963 1200 96.2963C1239.6 96.2963 1280.4 148.148 1320 174.074C1359.6 200 1400.4 200 1419.6 200H1440V0H1419.6C1400.4 0 1359.6 0 1320 0C1280.4 0 1239.6 0 1200 0C1160.4 0 1119.6 0 1080 0C1040.4 0 999.6 0 960 0C920.4 0 879.6 0 840 0C800.4 0 759.6 0 720 0C680.4 0 639.6 0 600 0C560.4 0 519.6 0 480 0C440.4 0 399.6 0 360 0C320.4 0 279.6 0 240 0C200.4 0 159.6 0 120 0C80.4 0 39.6 0 20.4 0H0V133.333Z" fill="#0F0F0F"/>
</svg>
