<svg width="1440" height="200" viewBox="0 0 1440 200" fill="none" xmlns="http://www.w3.org/2000/svg">
<path fill-rule="evenodd" clip-rule="evenodd" d="M0 57.1429L24 42.8571C48 28.5714 96 0 144 4.7619C192 9.52381 240 47.619 288 71.4286C336 95.2381 384 104.762 432 90.4762C480 76.1905 528 38.0952 576 52.381C624 66.6667 672 133.333 720 157.143C768 180.952 816 161.905 864 157.143C912 152.381 960 161.905 1008 147.619C1056 133.333 1104 95.2381 1152 100C1200 104.762 1248 152.381 1296 142.857C1344 133.333 1392 66.6667 1416 33.3333L1440 0V200H1416C1392 200 1344 200 1296 200C1248 200 1200 200 1152 200C1104 200 1056 200 1008 200C960 200 912 200 864 200C816 200 768 200 720 200C672 200 624 200 576 200C528 200 480 200 432 200C384 200 336 200 288 200C240 200 192 200 144 200C96 200 48 200 24 200H0V57.1429Z" fill="#0F0F0F"/>
</svg>
