<?xml version="1.0" standalone="no"?><svg xmlns="http://www.w3.org/2000/svg" viewBox="0 0 1440 320"><path fill="#0F0F0F" fill-opacity="1" d="M0,192L12,186.7C24,181,48,171,72,186.7C96,203,120,245,144,224C168,203,192,117,216,106.7C240,96,264,160,288,160C312,160,336,96,360,106.7C384,117,408,203,432,218.7C456,235,480,181,504,170.7C528,160,552,192,576,192C600,192,624,160,648,154.7C672,149,696,171,720,186.7C744,203,768,213,792,213.3C816,213,840,203,864,170.7C888,139,912,85,936,74.7C960,64,984,96,1008,138.7C1032,181,1056,235,1080,266.7C1104,299,1128,309,1152,282.7C1176,256,1200,192,1224,144C1248,96,1272,64,1296,48C1320,32,1344,32,1368,42.7C1392,53,1416,75,1428,85.3L1440,96L1440,320L1428,320C1416,320,1392,320,1368,320C1344,320,1320,320,1296,320C1272,320,1248,320,1224,320C1200,320,1176,320,1152,320C1128,320,1104,320,1080,320C1056,320,1032,320,1008,320C984,320,960,320,936,320C912,320,888,320,864,320C840,320,816,320,792,320C768,320,744,320,720,320C696,320,672,320,648,320C624,320,600,320,576,320C552,320,528,320,504,320C480,320,456,320,432,320C408,320,384,320,360,320C336,320,312,320,288,320C264,320,240,320,216,320C192,320,168,320,144,320C120,320,96,320,72,320C48,320,24,320,12,320L0,320Z"></path></svg>